# xmcd
#
# Track frame offsets:
#	150
#	14265
#	26892
#	38072
#	57245
#	77100
#	101650
#	112965
#	127627
#	148742
#	168927
#	181377
#	194582
#
# Disc length: 2814
#
# Revision: 1
# Processed by: cddbd v1.5.1PL0 Copyright (c) Steve Scherf et al.
# Submitted via: CDex 1.50Beta7
# Normalized: r0:TDELIM( - )
#
DISCID=a90afc0d
DTITLE=Gershwin Songbook - Various Artiists
DYEAR=1900
DGENRE=Jazz
TTITLE0=Ella Fitzgerald - Oh Lady Be Good
TTITLE1=Ben Weber - Our Love Is Here To Stay
TTITLE2=Louis Armstrong - Love Walked In
TTITLE3=Carmen McRae - My Man's Gone Now
TTITLE4=Diane Schuur - How Long Has This Been Going On
TTITLE5=Art Farmer - Who Cares
TTITLE6=Carmen McRae - Nice Work If You Can Get It
TTITLE7=Ella Fitzgerald - Somone To Watch Over Me
TTITLE8=Art Blakely Quartet - Summertime
TTITLE9=Art Farmer/Benny Golson Jazztet - It Ain't Necessarily So
TTITLE10=Ella Fitzgerald - Soon
TTITLE11=Kai Winding - Love Walked In
TTITLE12=The Ramsey Lewis Trio - I Got Plenty O' Nuttin'
EXTD=
EXTT0=
EXTT1=
EXTT2=
EXTT3=
EXTT4=
EXTT5=
EXTT6=
EXTT7=
EXTT8=
EXTT9=
EXTT10=
EXTT11=
EXTT12=
PLAYORDER=
